<svg xmlns="http://www.w3.org/2000/svg" xmlns:xlink="http://www.w3.org/1999/xlink" contentStyleType="text/css" height="1676px" preserveAspectRatio="none" style="width:2509px;height:1676px;background:#FFFFFF;" version="1.1" viewBox="0 0 2509 1676" width="2509px" zoomAndPan="magnify"><title>CodiNeo &#8212; Use Case Diagram</title><defs/><g><text fill="#000000" font-family="sans-serif" font-size="14" font-weight="bold" lengthAdjust="spacing" textLength="202.7197" x="1146.1401" y="24.5332">CodiNeo &#8212; Use Case Diagram</text><!--cluster CodiNeo System--><g id="cluster_CodiNeo System"><rect fill="none" height="1356" rx="2.5" ry="2.5" style="stroke:#181818;stroke-width:1.0;" width="2410" x="93" y="45.6094"/><text fill="#000000" font-family="sans-serif" font-size="14" font-weight="bold" lengthAdjust="spacing" textLength="111.248" x="1242.376" y="62.1426">CodiNeo System</text></g><!--cluster Learner Pathway--><g id="cluster_Learner Pathway"><rect fill="none" height="517" rx="2.5" ry="2.5" style="stroke:#181818;stroke-width:1.0;" width="287" x="477" y="860.6094"/><text fill="#000000" font-family="sans-serif" font-size="14" font-weight="bold" lengthAdjust="spacing" textLength="112.0479" x="564.4761" y="877.1426">Learner Pathway</text></g><!--cluster Developer Pathway--><g id="cluster_Developer Pathway"><rect fill="none" height="498" rx="2.5" ry="2.5" style="stroke:#181818;stroke-width:1.0;" width="1628" x="851" y="879.6094"/><text fill="#000000" font-family="sans-serif" font-size="14" font-weight="bold" lengthAdjust="spacing" textLength="128.3857" x="1600.8071" y="896.1426">Developer Pathway</text></g><!--cluster Admin Pathway--><g id="cluster_Admin Pathway"><rect fill="none" height="747" rx="2.5" ry="2.5" style="stroke:#181818;stroke-width:1.0;" width="622" x="117" y="89.6094"/><text fill="#000000" font-family="sans-serif" font-size="14" font-weight="bold" lengthAdjust="spacing" textLength="104.2412" x="375.8794" y="106.1426">Admin Pathway</text></g><g id="elem_UC_Auth"><ellipse cx="620.3832" cy="919.586" fill="#FFFFFF" rx="102.8832" ry="22.9766" style="stroke:#2F2F2F;stroke-width:0.5;"/><text fill="#000000" font-family="sans-serif" font-size="14" lengthAdjust="spacing" textLength="167.3164" x="536.725" y="923.3145">Authenticate to the System</text></g><g id="elem_UC_Browse"><ellipse cx="620.3417" cy="1001.5777" fill="#FFFFFF" rx="105.3417" ry="23.4683" style="stroke:#2F2F2F;stroke-width:0.5;"/><text fill="#000000" font-family="sans-serif" font-size="14" lengthAdjust="spacing" textLength="172.7783" x="533.9525" y="1005.3062">Browse Learning Catalogue</text></g><g id="elem_UC_OpenModule"><ellipse cx="620.5536" cy="1085.4201" fill="#FFFFFF" rx="114.5536" ry="25.3107" style="stroke:#2F2F2F;stroke-width:0.5;"/><text fill="#000000" font-family="sans-serif" font-size="14" lengthAdjust="spacing" textLength="192.999" x="524.0541" y="1089.1486">Open a Design-Pattern Module</text></g><g id="elem_UC_StudyModule"><ellipse cx="620.6946" cy="1166.5483" fill="#FFFFFF" rx="90.1946" ry="20.4389" style="stroke:#2F2F2F;stroke-width:0.5;"/><text fill="#000000" font-family="sans-serif" font-size="14" lengthAdjust="spacing" textLength="138.5303" x="551.4295" y="1170.2768">Study Module Content</text></g><g id="elem_UC_ModuleSelfCheck"><ellipse cx="620.5883" cy="1246.427" fill="#FFFFFF" rx="107.0883" ry="23.8177" style="stroke:#2F2F2F;stroke-width:0.5;"/><text fill="#000000" font-family="sans-serif" font-size="14" lengthAdjust="spacing" textLength="176.6406" x="532.268" y="1250.1556">Take the Module Self-Check</text></g><g id="elem_UC_CrossOver"><ellipse cx="620.5368" cy="1333.5167" fill="#FFFFFF" rx="127.5368" ry="27.9074" style="stroke:#2F2F2F;stroke-width:0.5;"/><text fill="#000000" font-family="sans-serif" font-size="14" lengthAdjust="spacing" textLength="220.9922" x="510.0407" y="1337.2452">Cross Over to the Developer Studio</text></g><g id="elem_UC_Submit"><ellipse cx="982.404" cy="986.3902" fill="#FFFFFF" rx="99.404" ry="22.2808" style="stroke:#2F2F2F;stroke-width:0.5;"/><text fill="#000000" font-family="sans-serif" font-size="14" lengthAdjust="spacing" textLength="159.5303" x="902.6388" y="990.1187">Submit C++ Source Code</text></g><g id="elem_UC_Paste"><ellipse cx="1333.8558" cy="1008.7805" fill="#FFFFFF" rx="88.8558" ry="20.1712" style="stroke:#2F2F2F;stroke-width:0.5;"/><text fill="#000000" font-family="sans-serif" font-size="14" lengthAdjust="spacing" textLength="135.4199" x="1266.1459" y="1012.5091">Paste Source Snippet</text></g><g id="elem_UC_UploadSingle"><ellipse cx="1334.2262" cy="934.4546" fill="#FFFFFF" rx="79.7262" ry="18.3452" style="stroke:#2F2F2F;stroke-width:0.5;"/><text fill="#000000" font-family="sans-serif" font-size="14" lengthAdjust="spacing" textLength="113.6201" x="1276.3064" y="938.4998">Upload Single File</text></g><g id="elem_UC_UploadMulti"><ellipse cx="1334.0171" cy="1083.8128" fill="#FFFFFF" rx="86.5171" ry="19.7034" style="stroke:#2F2F2F;stroke-width:0.5;"/><text fill="#000000" font-family="sans-serif" font-size="14" lengthAdjust="spacing" textLength="129.9443" x="1269.045" y="1087.5413">Upload Multiple Files</text></g><g id="elem_UC_Analyse"><ellipse cx="2012.2212" cy="1266.6536" fill="#FFFFFF" rx="93.2212" ry="21.0442" style="stroke:#2F2F2F;stroke-width:0.5;"/><text fill="#000000" font-family="sans-serif" font-size="14" lengthAdjust="spacing" textLength="145.5029" x="1939.4697" y="1270.3821">Run Structural Analysis</text></g><g id="elem_UC_Lex"><ellipse cx="2342.71" cy="1345.4514" fill="#FFFFFF" rx="67.21" ry="15.842" style="stroke:#2F2F2F;stroke-width:0.5;"/><text fill="#000000" font-family="sans-serif" font-size="14" lengthAdjust="spacing" textLength="79.3789" x="2300.0205" y="1349.968">Lexical Scan</text></g><g id="elem_UC_VSC"><ellipse cx="2342.3796" cy="1270.7853" fill="#FFFFFF" rx="106.3796" ry="23.6759" style="stroke:#2F2F2F;stroke-width:0.5;"/><text fill="#000000" font-family="sans-serif" font-size="14" lengthAdjust="spacing" textLength="175.0752" x="2254.842" y="1274.5138">Build Virtual Structural Copy</text></g><g id="elem_UC_Dispatch"><ellipse cx="2342.6779" cy="1189.545" fill="#FFFFFF" rx="97.6779" ry="21.9356" style="stroke:#2F2F2F;stroke-width:0.5;"/><text fill="#000000" font-family="sans-serif" font-size="14" lengthAdjust="spacing" textLength="155.6406" x="2264.8576" y="1193.2735">Dispatch Pattern Catalog</text></g><g id="elem_UC_Bind"><ellipse cx="2342.3012" cy="1108.5696" fill="#FFFFFF" rx="107.8012" ry="23.9602" style="stroke:#2F2F2F;stroke-width:0.5;"/><text fill="#000000" font-family="sans-serif" font-size="14" lengthAdjust="spacing" textLength="178.2129" x="2253.1948" y="1112.2981">Bind Evidence to Code Units</text></g><g id="elem_UC_Hash"><ellipse cx="2342.6564" cy="1022.6407" fill="#FFFFFF" rx="120.6564" ry="26.5313" style="stroke:#2F2F2F;stroke-width:0.5;"/><text fill="#000000" font-family="sans-serif" font-size="14" lengthAdjust="spacing" textLength="206.2197" x="2239.5465" y="1026.3692">Compute Hash and Link Analysis</text></g><g id="elem_UC_ViewEvidence"><ellipse cx="1686.1378" cy="1262.6369" fill="#FFFFFF" rx="118.1378" ry="26.0276" style="stroke:#2F2F2F;stroke-width:0.5;"/><text fill="#000000" font-family="sans-serif" font-size="14" lengthAdjust="spacing" textLength="200.7783" x="1585.7487" y="1266.3655">View Detected Pattern Evidence</text></g><g id="elem_UC_Highlight"><ellipse cx="1334.1957" cy="1249.8485" fill="#FFFFFF" rx="114.1957" ry="25.2391" style="stroke:#2F2F2F;stroke-width:0.5;"/><text fill="#000000" font-family="sans-serif" font-size="14" lengthAdjust="spacing" textLength="192.2197" x="1238.0859" y="1253.577">Inspect Highlighted Code Units</text></g><g id="elem_UC_GenDocs"><ellipse cx="1333.8614" cy="1335.7817" fill="#FFFFFF" rx="118.8614" ry="26.1723" style="stroke:#2F2F2F;stroke-width:0.5;"/><text fill="#000000" font-family="sans-serif" font-size="14" lengthAdjust="spacing" textLength="202.3438" x="1232.6896" y="1339.5102">Generate Documentation Output</text></g><g id="elem_UC_GenTests"><ellipse cx="1334.1161" cy="1163.6326" fill="#FFFFFF" rx="115.6161" ry="25.5232" style="stroke:#2F2F2F;stroke-width:0.5;"/><text fill="#000000" font-family="sans-serif" font-size="14" lengthAdjust="spacing" textLength="195.3096" x="1236.4613" y="1167.3611">Generate Templated Unit Tests</text></g><g id="elem_UC_RunTests"><ellipse cx="982.2809" cy="1066.6656" fill="#FFFFFF" rx="100.7809" ry="22.5562" style="stroke:#2F2F2F;stroke-width:0.5;"/><text fill="#000000" font-family="sans-serif" font-size="14" lengthAdjust="spacing" textLength="162.6201" x="900.9709" y="1070.3941">Run Templated Unit Tests</text></g><g id="elem_UC_SaveRun"><ellipse cx="1685.8032" cy="1342.77" fill="#FFFFFF" rx="81.3032" ry="18.6606" style="stroke:#2F2F2F;stroke-width:0.5;"/><text fill="#000000" font-family="sans-serif" font-size="14" lengthAdjust="spacing" textLength="117.5029" x="1626.6261" y="1346.6237">Save Analysis Run</text></g><g id="elem_UC_Validate"><ellipse cx="982.2599" cy="1149.5614" fill="#FFFFFF" rx="112.7599" ry="24.952" style="stroke:#2F2F2F;stroke-width:0.5;"/><text fill="#000000" font-family="sans-serif" font-size="14" lengthAdjust="spacing" textLength="189.0889" x="887.7155" y="1153.2899">Submit Self-Check / Validation</text></g><g id="elem_UC_Feedback"><ellipse cx="982.6192" cy="1235.6332" fill="#FFFFFF" rx="115.6192" ry="25.5238" style="stroke:#2F2F2F;stroke-width:0.5;"/><text fill="#000000" font-family="sans-serif" font-size="14" lengthAdjust="spacing" textLength="195.3164" x="884.961" y="1239.3617">Submit Post-Session Feedback</text></g><g id="elem_UC_AdminAuth"><ellipse cx="254.3652" cy="146.6824" fill="#FFFFFF" rx="90.8652" ry="20.573" style="stroke:#2F2F2F;stroke-width:0.5;"/><text fill="#000000" font-family="sans-serif" font-size="14" lengthAdjust="spacing" textLength="140.082" x="184.3242" y="150.4109">Authenticate as Admin</text></g><g id="elem_UC_ManageAccts"><ellipse cx="254.6749" cy="224.5444" fill="#FFFFFF" rx="97.6749" ry="21.935" style="stroke:#2F2F2F;stroke-width:0.5;"/><text fill="#000000" font-family="sans-serif" font-size="14" lengthAdjust="spacing" textLength="155.6338" x="176.858" y="228.2729">Manage Tester Accounts</text></g><g id="elem_UC_Monitor"><ellipse cx="254.4236" cy="303.4941" fill="#FFFFFF" rx="94.9236" ry="21.3847" style="stroke:#2F2F2F;stroke-width:0.5;"/><text fill="#000000" font-family="sans-serif" font-size="14" lengthAdjust="spacing" textLength="149.3926" x="179.7273" y="307.2226">Monitor Active Sessions</text></g><g id="elem_UC_ViewRuns"><ellipse cx="620.5275" cy="676.5149" fill="#FFFFFF" rx="102.5275" ry="22.9055" style="stroke:#2F2F2F;stroke-width:0.5;"/><text fill="#000000" font-family="sans-serif" font-size="14" lengthAdjust="spacing" textLength="166.5234" x="537.2658" y="680.2434">View Saved Analysis Runs</text></g><g id="elem_UC_ViewReviews"><ellipse cx="254.5403" cy="385.4174" fill="#FFFFFF" rx="112.0403" ry="24.8081" style="stroke:#2F2F2F;stroke-width:0.5;"/><text fill="#000000" font-family="sans-serif" font-size="14" lengthAdjust="spacing" textLength="187.5166" x="160.782" y="389.1459">Inspect Reviews &amp; Self-Check</text></g><g id="elem_UC_ViewSurveys"><ellipse cx="254.4545" cy="467.7003" fill="#FFFFFF" rx="95.9545" ry="21.5909" style="stroke:#2F2F2F;stroke-width:0.5;"/><text fill="#000000" font-family="sans-serif" font-size="14" lengthAdjust="spacing" textLength="151.7373" x="178.5858" y="471.4288">View Survey Responses</text></g><g id="elem_UC_Logs"><ellipse cx="254.4277" cy="547.7949" fill="#FFFFFF" rx="103.9277" ry="23.1855" style="stroke:#2F2F2F;stroke-width:0.5;"/><text fill="#000000" font-family="sans-serif" font-size="14" lengthAdjust="spacing" textLength="169.6406" x="169.6073" y="551.5234">View Logs &amp; Audit Records</text></g><g id="elem_UC_FreqStats"><ellipse cx="254.334" cy="630.7762" fill="#FFFFFF" rx="111.334" ry="24.6668" style="stroke:#2F2F2F;stroke-width:0.5;"/><text fill="#000000" font-family="sans-serif" font-size="14" lengthAdjust="spacing" textLength="185.9717" x="161.3482" y="634.5047">View Pattern-Frequency Stats</text></g><g id="elem_UC_KPI"><ellipse cx="620.4057" cy="785.3905" fill="#FFFFFF" rx="79.4057" ry="18.2811" style="stroke:#2F2F2F;stroke-width:0.5;"/><text fill="#000000" font-family="sans-serif" font-size="14" lengthAdjust="spacing" textLength="112.8203" x="562.7414" y="789.4746">View KPI Records</text></g><g id="elem_UC_Confusion"><ellipse cx="254.3604" cy="716.7815" fill="#FFFFFF" rx="121.3604" ry="26.6721" style="stroke:#2F2F2F;stroke-width:0.5;"/><text fill="#000000" font-family="sans-serif" font-size="14" lengthAdjust="spacing" textLength="207.7373" x="150.4917" y="720.51">View Confusion-Matrix Outcomes</text></g><g id="elem_UC_Export"><ellipse cx="254.7145" cy="799.4523" fill="#FFFFFF" rx="92.2145" ry="20.8429" style="stroke:#2F2F2F;stroke-width:0.5;"/><text fill="#000000" font-family="sans-serif" font-size="14" lengthAdjust="spacing" textLength="143.1924" x="183.1183" y="803.1808">Export Evaluation Data</text></g><!--entity Learner--><g id="elem_Learner"><ellipse cx="254.6274" cy="1426.1094" fill="#F1F1F1" rx="8" ry="8" style="stroke:#181818;stroke-width:0.5;"/><path d="M254.6274,1434.1094 L254.6274,1461.1094 M241.6274,1442.1094 L267.6274,1442.1094 M254.6274,1461.1094 L241.6274,1476.1094 M254.6274,1461.1094 L267.6274,1476.1094 " fill="none" style="stroke:#181818;stroke-width:0.5;"/><text fill="#000000" font-family="sans-serif" font-size="14" lengthAdjust="spacing" textLength="48.2549" x="230.5" y="1492.1426">Learner</text></g><!--entity Developer--><g id="elem_Developer"><ellipse cx="620.4067" cy="1426.1094" fill="#F1F1F1" rx="8" ry="8" style="stroke:#181818;stroke-width:0.5;"/><path d="M620.4067,1434.1094 L620.4067,1461.1094 M607.4067,1442.1094 L633.4067,1442.1094 M620.4067,1461.1094 L607.4067,1476.1094 M620.4067,1461.1094 L633.4067,1476.1094 " fill="none" style="stroke:#181818;stroke-width:0.5;"/><text fill="#000000" font-family="sans-serif" font-size="14" lengthAdjust="spacing" textLength="63.8135" x="588.5" y="1492.1426">Developer</text></g><!--entity Admin--><g id="elem_Admin"><ellipse cx="25.8413" cy="517.1094" fill="#F1F1F1" rx="8" ry="8" style="stroke:#181818;stroke-width:0.5;"/><path d="M25.8413,525.1094 L25.8413,552.1094 M12.8413,533.1094 L38.8413,533.1094 M25.8413,552.1094 L12.8413,567.1094 M25.8413,552.1094 L38.8413,567.1094 " fill="none" style="stroke:#181818;stroke-width:0.5;"/><text fill="#000000" font-family="sans-serif" font-size="14" lengthAdjust="spacing" textLength="39.6826" x="6" y="583.1426">Admin</text></g><!--link Learner to UC_Auth--><g id="link_Learner_UC_Auth"><path d="M265.79,1417.3494 C286.34,1342.3094 336.5,1174.5394 406,1045.6094 C411.58,1035.2594 459.29,967.2394 469,960.6094 C488.34,947.3894 505.9964,939.9894 528.5764,933.9094 " fill="none" id="Learner-to-UC_Auth" style="stroke:#2F2F2F;stroke-width:1.0;"/><polygon fill="#2F2F2F" points="534.37,932.3494,524.6395,930.827,529.542,933.6494,526.7195,938.5518,534.37,932.3494" style="stroke:#2F2F2F;stroke-width:1.0;"/></g><!--link Learner to UC_Browse--><g id="link_Learner_UC_Browse"><path d="M262.92,1417.4694 C281.19,1333.0294 336.8,1134.0294 469,1042.6094 C487.71,1029.6694 504.5667,1022.4072 526.5367,1016.3372 " fill="none" id="Learner-to-UC_Browse" style="stroke:#2F2F2F;stroke-width:1.0;"/><polygon fill="#2F2F2F" points="532.32,1014.7394,522.5798,1013.2806,527.5006,1016.0709,524.7102,1020.9917,532.32,1014.7394" style="stroke:#2F2F2F;stroke-width:1.0;"/></g><!--link Learner to UC_OpenModule--><g id="link_Learner_UC_OpenModule"><path d="M268.93,1417.4194 C295.26,1347.0194 360.71,1199.8194 469,1128.6094 C487.39,1116.5194 503.4577,1109.4756 524.6977,1103.1756 " fill="none" id="Learner-to-UC_OpenModule" style="stroke:#2F2F2F;stroke-width:1.0;"/><polygon fill="#2F2F2F" points="530.45,1101.4694,520.6841,1100.1938,525.6564,1102.8912,522.959,1107.8635,530.45,1101.4694" style="stroke:#2F2F2F;stroke-width:1.0;"/></g><!--link Learner to UC_StudyModule--><g id="link_Learner_UC_StudyModule"><path d="M277.62,1417.6094 C311.45,1361.6194 381.42,1259.2294 469,1204.6094 C490.84,1190.9894 511.4803,1183.5841 536.1103,1177.9641 " fill="none" id="Learner-to-UC_StudyModule" style="stroke:#2F2F2F;stroke-width:1.0;"/><polygon fill="#2F2F2F" points="541.96,1176.6294,532.2957,1174.7317,537.0853,1177.7417,534.0754,1182.5313,541.96,1176.6294" style="stroke:#2F2F2F;stroke-width:1.0;"/></g><!--link Learner to UC_ModuleSelfCheck--><g id="link_Learner_UC_ModuleSelfCheck"><path d="M278.54,1433.0394 C315.45,1396.5994 391.57,1326.7194 469,1287.6094 C490.63,1276.6794 509.7409,1269.919 532.9809,1263.749 " fill="none" id="Learner-to-UC_ModuleSelfCheck" style="stroke:#2F2F2F;stroke-width:1.0;"/><polygon fill="#2F2F2F" points="538.78,1262.2094,529.0549,1260.6527,533.9474,1263.4924,531.1077,1268.3849,538.78,1262.2094" style="stroke:#2F2F2F;stroke-width:1.0;"/></g><!--link Learner to UC_CrossOver--><g id="link_Learner_UC_CrossOver"><path d="M278.55,1448.8194 C332.15,1430.7094 461.2658,1387.0803 544.4158,1358.9803 " fill="none" id="Learner-to-UC_CrossOver" style="stroke:#2F2F2F;stroke-width:1.0;"/><polygon fill="#2F2F2F" points="550.1,1357.0594,540.2931,1356.1513,545.3632,1358.6602,542.8543,1363.7302,550.1,1357.0594" style="stroke:#2F2F2F;stroke-width:1.0;"/></g><!--link Developer to UC_Auth--><g id="link_Developer_UC_Auth"><path d="M588.16,1451.5794 C542.05,1442.4694 458.98,1418.4794 422.5,1360.1094 C377.51,1288.1294 374.19,1047.9094 422.5,978.1094 C444.28,946.6494 476.4325,932.4058 513.3925,925.1458 " fill="none" id="Developer-to-UC_Auth" style="stroke:#2F2F2F;stroke-width:1.0;"/><polygon fill="#2F2F2F" points="519.28,923.9894,509.6778,921.7991,514.3738,924.9531,511.2197,929.6491,519.28,923.9894" style="stroke:#2F2F2F;stroke-width:1.0;"/></g><!--link Developer to UC_Submit--><g id="link_Developer_UC_Submit"><path d="M652.66,1450.0794 C688.41,1440.7594 745.52,1419.8694 772,1377.6094 C786.7,1354.1494 772.01,1155.1094 780,1128.6094 C781.92,1122.2294 837.7,1030.6394 843,1026.6094 C859.65,1013.9694 874.4144,1007.0245 894.5144,1001.1045 " fill="none" id="Developer-to-UC_Submit" style="stroke:#2F2F2F;stroke-width:1.0;"/><polygon fill="#2F2F2F" points="900.27,999.4094,890.5066,998.1151,895.4737,1000.822,892.7668,1005.7892,900.27,999.4094" style="stroke:#2F2F2F;stroke-width:1.0;"/></g><!--link Developer to UC_Analyse--><g id="link_Developer_UC_Analyse"><path d="M652.51,1490.8294 C710.67,1551.0394 842.8,1669.6094 981.5,1669.6094 C981.5,1669.6094 981.5,1669.6094 1687,1669.6094 C1884.95,1669.6094 1980.654,1376.4077 2003.844,1293.4877 " fill="none" id="Developer-to-UC_Analyse" style="stroke:#2F2F2F;stroke-width:1.0;"/><polygon fill="#2F2F2F" points="2005.46,1287.7094,1999.1838,1295.2995,2004.1133,1292.5246,2006.8882,1297.4541,2005.46,1287.7094" style="stroke:#2F2F2F;stroke-width:1.0;"/></g><!--link Developer to UC_ViewEvidence--><g id="link_Developer_UC_ViewEvidence"><path d="M652.74,1459.4194 C684.69,1462.1394 735.75,1466.0794 780,1467.6094 C804.43,1468.4594 810.56,1467.6594 835,1467.6094 C1112.5,1467.0794 1197.53,1486.9794 1453,1378.6094 C1508.51,1355.0594 1513.95,1333.3594 1568,1306.6094 C1584.53,1298.4294 1597.3642,1292.9418 1614.6442,1286.4418 " fill="none" id="Developer-to-UC_ViewEvidence" style="stroke:#2F2F2F;stroke-width:1.0;"/><polygon fill="#2F2F2F" points="1620.26,1284.3294,1610.428,1283.7541,1615.5801,1286.0897,1613.2445,1291.2419,1620.26,1284.3294" style="stroke:#2F2F2F;stroke-width:1.0;"/></g><!--link Developer to UC_Highlight--><g id="link_Developer_UC_Highlight"><path d="M652.79,1450.8794 C767.96,1429.7094 1162.67,1356.2894 1185,1340.6094 C1205.9,1325.9394 1195.17,1307.6994 1215,1291.6094 C1227.24,1281.6794 1236.4319,1276.2096 1251.3219,1270.3096 " fill="none" id="Developer-to-UC_Highlight" style="stroke:#2F2F2F;stroke-width:1.0;"/><polygon fill="#2F2F2F" points="1256.9,1268.0994,1247.0594,1267.696,1252.2516,1269.9412,1250.0064,1275.1335,1256.9,1268.0994" style="stroke:#2F2F2F;stroke-width:1.0;"/></g><!--link Developer to UC_GenDocs--><g id="link_Developer_UC_GenDocs"><path d="M652.79,1458.3494 C739.37,1462.2494 988.65,1467.4394 1185,1411.6094 C1224.73,1400.3094 1261.1214,1381.0334 1290.0414,1363.4734 " fill="none" id="Developer-to-UC_GenDocs" style="stroke:#2F2F2F;stroke-width:1.0;"/><polygon fill="#2F2F2F" points="1295.17,1360.3594,1285.401,1361.6114,1290.8962,1362.9544,1289.5531,1368.4495,1295.17,1360.3594" style="stroke:#2F2F2F;stroke-width:1.0;"/></g><!--link Developer to UC_GenTests--><g id="link_Developer_UC_GenTests"><path d="M652.74,1442.6094 C695.36,1423.7094 774.29,1389.4394 843,1363.6094 C954.82,1321.5694 989.75,1329.1394 1098,1278.6094 C1153.33,1252.7894 1160.04,1233.1994 1215,1206.6094 C1231.78,1198.4894 1244.8826,1193.0535 1262.3926,1186.6735 " fill="none" id="Developer-to-UC_GenTests" style="stroke:#2F2F2F;stroke-width:1.0;"/><polygon fill="#2F2F2F" points="1268.03,1184.6194,1258.2045,1183.9422,1263.3321,1186.3311,1260.9432,1191.4588,1268.03,1184.6194" style="stroke:#2F2F2F;stroke-width:1.0;"/></g><!--link Developer to UC_RunTests--><g id="link_Developer_UC_RunTests"><path d="M652.57,1450.0294 C688.24,1440.6594 745.27,1419.7094 772,1377.6094 C782.85,1360.5194 773.44,1214.7594 780,1195.6094 C795.7,1149.7594 803.5,1134.6894 843,1106.6094 C860.14,1094.4294 875.182,1087.626 895.392,1081.706 " fill="none" id="Developer-to-UC_RunTests" style="stroke:#2F2F2F;stroke-width:1.0;"/><polygon fill="#2F2F2F" points="901.15,1080.0194,891.3885,1078.7107,896.3516,1081.4249,893.6374,1086.3881,901.15,1080.0194" style="stroke:#2F2F2F;stroke-width:1.0;"/></g><!--link Developer to UC_SaveRun--><g id="link_Developer_UC_SaveRun"><path d="M652.69,1482.9694 C682.99,1506.7194 731.4,1539.9194 780,1553.6094 C942.13,1599.2794 1388.68,1631.5694 1538,1553.6094 C1617.94,1511.8694 1661.2246,1410.2772 1676.7846,1366.8872 " fill="none" id="Developer-to-UC_SaveRun" style="stroke:#2F2F2F;stroke-width:1.0;"/><polygon fill="#2F2F2F" points="1678.81,1361.2394,1672.0067,1368.3609,1677.1222,1365.9459,1679.5372,1371.0614,1678.81,1361.2394" style="stroke:#2F2F2F;stroke-width:1.0;"/></g><!--link Developer to UC_Validate--><g id="link_Developer_UC_Validate"><path d="M652.77,1449.8694 C688.35,1440.3794 745.01,1419.3694 772,1377.6094 C788.07,1352.7394 766.58,1270.9994 780,1244.6094 C796.46,1212.2494 811.06,1209.8694 843,1192.6094 C861.94,1182.3694 877.9396,1175.9576 898.4996,1169.5776 " fill="none" id="Developer-to-UC_Validate" style="stroke:#2F2F2F;stroke-width:1.0;"/><polygon fill="#2F2F2F" points="904.23,1167.7994,894.4489,1166.6464,899.4546,1169.2812,896.8198,1174.287,904.23,1167.7994" style="stroke:#2F2F2F;stroke-width:1.0;"/></g><!--link Developer to UC_Feedback--><g id="link_Developer_UC_Feedback"><path d="M652.55,1449.7294 C687.93,1440.1094 744.4,1418.9694 772,1377.6094 C783.02,1361.0894 767.18,1303.7794 780,1288.6094 C802.24,1262.2894 829.9579,1249.4985 863.3679,1242.2085 " fill="none" id="Developer-to-UC_Feedback" style="stroke:#2F2F2F;stroke-width:1.0;"/><polygon fill="#2F2F2F" points="869.23,1240.9294,859.5842,1238.94,864.3449,1241.9953,861.2896,1246.7561,869.23,1240.9294" style="stroke:#2F2F2F;stroke-width:1.0;"/></g><!--link Admin to UC_AdminAuth--><g id="link_Admin_UC_AdminAuth"><path d="M27.88,508.5194 C30.6,424.5794 41.54,230.9094 85,184.6094 C105.21,163.0694 128.9045,153.4828 157.6745,148.6028 " fill="none" id="Admin-to-UC_AdminAuth" style="stroke:#2F2F2F;stroke-width:1.0;"/><polygon fill="#2F2F2F" points="163.59,147.5994,154.0478,145.1608,158.6604,148.4355,155.3857,153.0481,163.59,147.5994" style="stroke:#2F2F2F;stroke-width:1.0;"/></g><!--link Admin to UC_ManageAccts--><g id="link_Admin_UC_ManageAccts"><path d="M29.89,508.5194 C35.83,439.2394 51.7,298.9494 85,264.6094 C104.25,244.7494 125.5571,235.2276 152.4771,229.5976 " fill="none" id="Admin-to-UC_ManageAccts" style="stroke:#2F2F2F;stroke-width:1.0;"/><polygon fill="#2F2F2F" points="158.35,228.3694,148.7218,226.2965,153.4559,229.3929,150.3594,234.127,158.35,228.3694" style="stroke:#2F2F2F;stroke-width:1.0;"/></g><!--link Admin to UC_Monitor--><g id="link_Admin_UC_Monitor"><path d="M26.83,508.4294 C28.84,462.1494 39.48,385.9894 85,342.6094 C105.33,323.2394 127.3953,313.9899 154.6953,308.5599 " fill="none" id="Admin-to-UC_Monitor" style="stroke:#2F2F2F;stroke-width:1.0;"/><polygon fill="#2F2F2F" points="160.58,307.3894,150.9726,305.2219,155.6761,308.3648,152.5332,313.0682,160.58,307.3894" style="stroke:#2F2F2F;stroke-width:1.0;"/></g><!--link Admin to UC_ViewRuns--><g id="link_Admin_UC_ViewRuns"><path d="M29.03,586.6294 C33.62,658.0694 47.52,805.4994 85,837.6094 C148.49,892.0194 399.61,908.3794 461,851.6094 C477.69,836.1694 456.19,768.3894 469,749.6094 C487.9,721.8994 514.744,706.3974 544.704,695.4574 " fill="none" id="Admin-to-UC_ViewRuns" style="stroke:#2F2F2F;stroke-width:1.0;"/><polygon fill="#2F2F2F" points="550.34,693.3994,540.514,692.729,545.6433,695.1144,543.258,700.2437,550.34,693.3994" style="stroke:#2F2F2F;stroke-width:1.0;"/></g><!--link Admin to UC_ViewReviews--><g id="link_Admin_UC_ViewReviews"><path d="M36.75,508.3994 C45.26,482.1394 60.23,448.7894 85,428.6094 C104.31,412.8794 122.8808,404.3586 147.0308,397.9486 " fill="none" id="Admin-to-UC_ViewReviews" style="stroke:#2F2F2F;stroke-width:1.0;"/><polygon fill="#2F2F2F" points="152.83,396.4094,143.105,394.8521,147.9973,397.6921,145.1574,402.5844,152.83,396.4094" style="stroke:#2F2F2F;stroke-width:1.0;"/></g><!--link Admin to UC_ViewSurveys--><g id="link_Admin_UC_ViewSurveys"><path d="M46.23,531.1394 C57,522.6794 71.05,512.8594 85,506.6094 C112.81,494.1394 139.185,486.6476 167.975,480.6776 " fill="none" id="Admin-to-UC_ViewSurveys" style="stroke:#2F2F2F;stroke-width:1.0;"/><polygon fill="#2F2F2F" points="173.85,479.4594,164.2253,477.3701,168.9542,480.4746,165.8497,485.2035,173.85,479.4594" style="stroke:#2F2F2F;stroke-width:1.0;"/></g><!--link Admin to UC_Logs--><g id="link_Admin_UC_Logs"><path d="M46.31,547.6094 C69.69,547.6094 104.84,547.6094 144.35,547.6094 " fill="none" id="Admin-to-UC_Logs" style="stroke:#2F2F2F;stroke-width:1.0;"/><polygon fill="#2F2F2F" points="150.35,547.6094,141.35,543.6094,145.35,547.6094,141.35,551.6094,150.35,547.6094" style="stroke:#2F2F2F;stroke-width:1.0;"/></g><!--link Admin to UC_FreqStats--><g id="link_Admin_UC_FreqStats"><path d="M46.09,563.3394 C56.93,571.5994 71.08,581.2794 85,587.6094 C110.97,599.4194 134.8986,606.9571 162.1086,613.5471 " fill="none" id="Admin-to-UC_FreqStats" style="stroke:#2F2F2F;stroke-width:1.0;"/><polygon fill="#2F2F2F" points="167.94,614.9594,160.1344,608.9533,163.0805,613.7824,158.2513,616.7285,167.94,614.9594" style="stroke:#2F2F2F;stroke-width:1.0;"/></g><!--link Admin to UC_KPI--><g id="link_Admin_UC_KPI"><path d="M27.45,586.7594 C29.32,669.1994 38.67,856.3694 85,895.6094 C212.55,1003.6594 303.4,941.3594 461,885.6094 C461.45,885.4494 541.6475,834.794 586.9175,806.194 " fill="none" id="Admin-to-UC_KPI" style="stroke:#2F2F2F;stroke-width:1.0;"/><polygon fill="#2F2F2F" points="591.99,802.9894,582.2448,804.4147,587.7629,805.6599,586.5177,811.178,591.99,802.9894" style="stroke:#2F2F2F;stroke-width:1.0;"/></g><!--link Admin to UC_Confusion--><g id="link_Admin_UC_Confusion"><path d="M35.66,586.6494 C43.83,614.4994 58.84,650.7594 85,672.6094 C102.75,687.4394 119.1841,695.6353 141.5741,702.2253 " fill="none" id="Admin-to-UC_Confusion" style="stroke:#2F2F2F;stroke-width:1.0;"/><polygon fill="#2F2F2F" points="147.33,703.9194,139.8256,697.541,142.5334,702.5076,137.5668,705.2155,147.33,703.9194" style="stroke:#2F2F2F;stroke-width:1.0;"/></g><!--link Admin to UC_Export--><g id="link_Admin_UC_Export"><path d="M26.31,587.0094 C27.7,634.9294 37.64,715.0294 85,760.6094 C105.88,780.6994 129.0626,790.0845 157.1926,795.3545 " fill="none" id="Admin-to-UC_Export" style="stroke:#2F2F2F;stroke-width:1.0;"/><polygon fill="#2F2F2F" points="163.09,796.4594,154.9805,790.8705,158.1755,795.5387,153.5073,798.7337,163.09,796.4594" style="stroke:#2F2F2F;stroke-width:1.0;"/></g><!--link UC_Submit to UC_Paste--><g id="link_UC_Submit_UC_Paste"><path d="M1074.41,995.4294 C1092.17,996.9694 1110.66,998.4494 1128,999.6094 C1166.66,1002.1994 1203.4648,1003.9693 1239.9248,1005.4293 " fill="none" id="UC_Submit-to-UC_Paste" style="stroke:#2F2F2F;stroke-width:1.0;stroke-dasharray:7.0,7.0;"/><polygon fill="#2F2F2F" points="1245.92,1005.6694,1237.0873,1001.3125,1240.924,1005.4693,1236.7672,1009.3061,1245.92,1005.6694" style="stroke:#2F2F2F;stroke-width:1.0;"/><text fill="#000000" font-family="sans-serif" font-size="13" lengthAdjust="spacing" textLength="55.6563" x="1129" y="996.1045">&#171;include&#187;</text></g><!--link UC_Submit to UC_UploadSingle--><g id="link_UC_Submit_UC_UploadSingle"><path d="M1066.33,974.2894 C1127.49,965.1894 1203.7253,953.8419 1260.6153,945.3819 " fill="none" id="UC_Submit-to-UC_UploadSingle" style="stroke:#2F2F2F;stroke-width:1.0;stroke-dasharray:7.0,7.0;"/><polygon fill="#2F2F2F" points="1266.55,944.4994,1257.0595,941.8667,1261.6044,945.2348,1258.2363,949.7797,1266.55,944.4994" style="stroke:#2F2F2F;stroke-width:1.0;"/><text fill="#000000" font-family="sans-serif" font-size="13" lengthAdjust="spacing" textLength="55.6563" x="1129" y="954.1045">&#171;include&#187;</text></g><!--link UC_Submit to UC_UploadMulti--><g id="link_UC_Submit_UC_UploadMulti"><path d="M1042.43,1004.6094 C1068.59,1012.4694 1099.77,1021.6894 1128,1029.6094 C1177.79,1043.5694 1228.8697,1056.9727 1270.0597,1067.5827 " fill="none" id="UC_Submit-to-UC_UploadMulti" style="stroke:#2F2F2F;stroke-width:1.0;stroke-dasharray:7.0,7.0;"/><polygon fill="#2F2F2F" points="1275.87,1069.0794,1268.1523,1062.9608,1271.0281,1067.8322,1266.1567,1070.7079,1275.87,1069.0794" style="stroke:#2F2F2F;stroke-width:1.0;"/><text fill="#000000" font-family="sans-serif" font-size="13" lengthAdjust="spacing" textLength="55.6563" x="1129" y="1026.1045">&#171;include&#187;</text></g><!--link UC_Analyse to UC_Lex--><g id="link_UC_Analyse_UC_Lex"><path d="M2076.34,1281.8394 C2140.19,1297.1994 2231.4362,1319.1469 2288.7162,1332.9169 " fill="none" id="UC_Analyse-to-UC_Lex" style="stroke:#2F2F2F;stroke-width:1.0;stroke-dasharray:7.0,7.0;"/><polygon fill="#2F2F2F" points="2294.55,1334.3194,2286.7343,1328.3265,2289.6885,1333.1507,2284.8643,1336.1049,2294.55,1334.3194" style="stroke:#2F2F2F;stroke-width:1.0;"/><text fill="#000000" font-family="sans-serif" font-size="13" lengthAdjust="spacing" textLength="55.6563" x="2136" y="1294.1045">&#171;include&#187;</text></g><!--link UC_Analyse to UC_VSC--><g id="link_UC_Analyse_UC_VSC"><path d="M2104.94,1267.7294 C2145.66,1268.2294 2187.7804,1268.7368 2229.9504,1269.2468 " fill="none" id="UC_Analyse-to-UC_VSC" style="stroke:#2F2F2F;stroke-width:1.0;stroke-dasharray:7.0,7.0;"/><polygon fill="#2F2F2F" points="2235.95,1269.3194,2226.999,1265.2108,2230.9504,1269.2589,2226.9023,1273.2102,2235.95,1269.3194" style="stroke:#2F2F2F;stroke-width:1.0;"/><text fill="#000000" font-family="sans-serif" font-size="13" lengthAdjust="spacing" textLength="55.6563" x="2136" y="1265.1045">&#171;include&#187;</text></g><!--link UC_Analyse to UC_Dispatch--><g id="link_UC_Analyse_UC_Dispatch"><path d="M2077.12,1251.5794 C2133.88,1238.2794 2210.5981,1220.2877 2268.3181,1206.7677 " fill="none" id="UC_Analyse-to-UC_Dispatch" style="stroke:#2F2F2F;stroke-width:1.0;stroke-dasharray:7.0,7.0;"/><polygon fill="#2F2F2F" points="2274.16,1205.3994,2264.4849,1203.5573,2269.2918,1206.5397,2266.3094,1211.3465,2274.16,1205.3994" style="stroke:#2F2F2F;stroke-width:1.0;"/><text fill="#000000" font-family="sans-serif" font-size="13" lengthAdjust="spacing" textLength="55.6563" x="2136" y="1223.1045">&#171;include&#187;</text></g><!--link UC_Analyse to UC_Bind--><g id="link_UC_Analyse_UC_Bind"><path d="M2044.3,1246.7294 C2084.39,1221.8294 2156.52,1178.8894 2222,1149.6094 C2239.82,1141.6394 2254.0095,1136.1911 2272.3595,1129.9511 " fill="none" id="UC_Analyse-to-UC_Bind" style="stroke:#2F2F2F;stroke-width:1.0;stroke-dasharray:7.0,7.0;"/><polygon fill="#2F2F2F" points="2278.04,1128.0194,2268.2314,1127.1299,2273.3062,1129.6291,2270.807,1134.7039,2278.04,1128.0194" style="stroke:#2F2F2F;stroke-width:1.0;"/><text fill="#000000" font-family="sans-serif" font-size="13" lengthAdjust="spacing" textLength="55.6563" x="2136" y="1163.1045">&#171;include&#187;</text></g><!--link UC_Analyse to UC_Hash--><g id="link_UC_Analyse_UC_Hash"><path d="M2029.04,1245.7494 C2061.23,1205.2794 2137.88,1115.7594 2222,1066.6094 C2237.08,1057.7994 2248.6186,1052.3636 2265.1286,1046.1136 " fill="none" id="UC_Analyse-to-UC_Hash" style="stroke:#2F2F2F;stroke-width:1.0;stroke-dasharray:7.0,7.0;"/><polygon fill="#2F2F2F" points="2270.74,1043.9894,2260.9068,1043.4348,2266.0638,1045.7596,2263.7391,1050.9167,2270.74,1043.9894" style="stroke:#2F2F2F;stroke-width:1.0;"/><text fill="#000000" font-family="sans-serif" font-size="13" lengthAdjust="spacing" textLength="55.6563" x="2136" y="1085.1045">&#171;include&#187;</text></g><!--link UC_ViewEvidence to UC_Analyse--><g id="link_UC_ViewEvidence_UC_Analyse"><path d="M1803.97,1264.0494 C1841.86,1264.5194 1877.3105,1264.9539 1913.1005,1265.4039 " fill="none" id="UC_ViewEvidence-to-UC_Analyse" style="stroke:#2F2F2F;stroke-width:1.0;stroke-dasharray:7.0,7.0;"/><polygon fill="#2F2F2F" points="1919.1,1265.4794,1910.151,1261.3665,1914.1004,1265.4165,1910.0504,1269.3659,1919.1,1265.4794" style="stroke:#2F2F2F;stroke-width:1.0;"/><text fill="#000000" font-family="sans-serif" font-size="13" lengthAdjust="spacing" textLength="53.4917" x="1835" y="1261.1045">&#171;extend&#187;</text></g><!--link UC_Highlight to UC_ViewEvidence--><g id="link_UC_Highlight_UC_ViewEvidence"><path d="M1446.7,1253.7594 C1485.92,1255.2194 1524.0341,1256.6263 1563.5441,1258.0963 " fill="none" id="UC_Highlight-to-UC_ViewEvidence" style="stroke:#2F2F2F;stroke-width:1.0;stroke-dasharray:7.0,7.0;"/><polygon fill="#2F2F2F" points="1569.54,1258.3194,1560.6949,1253.9875,1564.5435,1258.1335,1560.3975,1261.982,1569.54,1258.3194" style="stroke:#2F2F2F;stroke-width:1.0;"/><text fill="#000000" font-family="sans-serif" font-size="13" lengthAdjust="spacing" textLength="53.4917" x="1484" y="1252.1045">&#171;extend&#187;</text></g><!--link UC_GenDocs to UC_ViewEvidence--><g id="link_UC_GenDocs_UC_ViewEvidence"><path d="M1420.62,1317.7494 C1475.06,1306.3994 1539.3963,1292.974 1593.7863,1281.634 " fill="none" id="UC_GenDocs-to-UC_ViewEvidence" style="stroke:#2F2F2F;stroke-width:1.0;stroke-dasharray:7.0,7.0;"/><polygon fill="#2F2F2F" points="1599.66,1280.4094,1590.033,1278.3305,1594.7653,1281.4299,1591.6659,1286.1621,1599.66,1280.4094" style="stroke:#2F2F2F;stroke-width:1.0;"/><text fill="#000000" font-family="sans-serif" font-size="13" lengthAdjust="spacing" textLength="53.4917" x="1484" y="1292.1045">&#171;extend&#187;</text></g><!--link UC_GenTests to UC_ViewEvidence--><g id="link_UC_GenTests_UC_ViewEvidence"><path d="M1405.83,1183.6394 C1466.05,1200.6794 1546.3766,1223.396 1606.9966,1240.546 " fill="none" id="UC_GenTests-to-UC_ViewEvidence" style="stroke:#2F2F2F;stroke-width:1.0;stroke-dasharray:7.0,7.0;"/><polygon fill="#2F2F2F" points="1612.77,1242.1794,1605.1988,1235.8804,1607.9588,1240.8182,1603.021,1243.5783,1612.77,1242.1794" style="stroke:#2F2F2F;stroke-width:1.0;"/><text fill="#000000" font-family="sans-serif" font-size="13" lengthAdjust="spacing" textLength="53.4917" x="1484" y="1204.1045">&#171;extend&#187;</text></g><!--link UC_RunTests to UC_GenTests--><g id="link_UC_RunTests_UC_GenTests"><path d="M1046.39,1084.0594 C1106.82,1100.8394 1192.2585,1124.5449 1255.4985,1142.0949 " fill="none" id="UC_RunTests-to-UC_GenTests" style="stroke:#2F2F2F;stroke-width:1.0;stroke-dasharray:7.0,7.0;"/><polygon fill="#2F2F2F" points="1261.28,1143.6994,1253.6774,1137.4384,1256.4621,1142.3623,1251.5381,1145.147,1261.28,1143.6994" style="stroke:#2F2F2F;stroke-width:1.0;"/><text fill="#000000" font-family="sans-serif" font-size="13" lengthAdjust="spacing" textLength="53.4917" x="1130" y="1106.1045">&#171;extend&#187;</text></g><!--link UC_SaveRun to UC_Analyse--><g id="link_UC_SaveRun_UC_Analyse"><path d="M1743.44,1329.3694 C1800.18,1316.0594 1881.6986,1296.9397 1941.0386,1283.0197 " fill="none" id="UC_SaveRun-to-UC_Analyse" style="stroke:#2F2F2F;stroke-width:1.0;stroke-dasharray:7.0,7.0;"/><polygon fill="#2F2F2F" points="1946.88,1281.6494,1937.2043,1279.8105,1942.0121,1282.7913,1939.0314,1287.5991,1946.88,1281.6494" style="stroke:#2F2F2F;stroke-width:1.0;"/><text fill="#000000" font-family="sans-serif" font-size="13" lengthAdjust="spacing" textLength="53.4917" x="1835" y="1292.1045">&#171;extend&#187;</text></g><!--link UC_CrossOver to UC_Submit--><g id="link_UC_CrossOver_UC_Submit"><path d="M729.05,1318.8794 C745.74,1311.9294 761.05,1301.9394 772,1287.6094 C789.22,1265.0894 761.98,1054.4894 780,1032.6094 C804.86,1002.4194 839.1267,990.3467 877.1267,985.5767 " fill="none" id="UC_CrossOver-to-UC_Submit" style="stroke:#2F2F2F;stroke-width:1.0;stroke-dasharray:7.0,7.0;"/><polygon fill="#2F2F2F" points="883.08,984.8294,873.6519,981.9815,878.1189,985.4521,874.6483,989.9192,883.08,984.8294" style="stroke:#2F2F2F;stroke-width:1.0;"/><text fill="#000000" font-family="sans-serif" font-size="13" lengthAdjust="spacing" textLength="53.4917" x="781" y="993.1045">&#171;extend&#187;</text></g><!--link UC_AdminAuth to UC_Auth--><g id="link_UC_AdminAuth_UC_Auth"><path d="M334.4,156.6494 C350.46,162.3694 365.61,171.1594 376,184.6094 C416.6,237.1694 377.01,721.8494 406,781.6094 C435.91,843.2594 502.4602,878.7347 554.6202,898.8047 " fill="none" id="UC_AdminAuth-to-UC_Auth" style="stroke:#2F2F2F;stroke-width:1.0;stroke-dasharray:7.0,7.0;"/><polygon fill="#2F2F2F" points="560.22,900.9594,553.2568,893.9942,555.5535,899.1638,550.3839,901.4606,560.22,900.9594" style="stroke:#2F2F2F;stroke-width:1.0;"/><text fill="#000000" font-family="sans-serif" font-size="13" lengthAdjust="spacing" textLength="53.4917" x="407" y="778.1045">&#171;extend&#187;</text></g><!--link UC_Confusion to UC_KPI--><g id="link_UC_Confusion_UC_KPI"><path d="M346.88,733.9294 C413.01,746.4694 494.6651,761.9412 552.4951,772.9112 " fill="none" id="UC_Confusion-to-UC_KPI" style="stroke:#2F2F2F;stroke-width:1.0;stroke-dasharray:7.0,7.0;"/><polygon fill="#2F2F2F" points="558.39,774.0294,550.2932,768.4221,553.4776,773.0975,548.8022,776.282,558.39,774.0294" style="stroke:#2F2F2F;stroke-width:1.0;"/><text fill="#000000" font-family="sans-serif" font-size="13" lengthAdjust="spacing" textLength="53.4917" x="407" y="743.1045">&#171;extend&#187;</text></g><!--link UC_FreqStats to UC_ViewRuns--><g id="link_UC_FreqStats_UC_ViewRuns"><path d="M351.61,642.7594 C407.11,649.7694 470.4873,657.7773 524.7073,664.6273 " fill="none" id="UC_FreqStats-to-UC_ViewRuns" style="stroke:#2F2F2F;stroke-width:1.0;stroke-dasharray:7.0,7.0;"/><polygon fill="#2F2F2F" points="530.66,665.3794,522.2323,660.2829,525.6994,664.7527,521.2296,668.2198,530.66,665.3794" style="stroke:#2F2F2F;stroke-width:1.0;"/><text fill="#000000" font-family="sans-serif" font-size="13" lengthAdjust="spacing" textLength="53.4917" x="407" y="647.1045">&#171;extend&#187;</text></g><!--SRC=[fLXjRzis4FwkNt5GWNL3OGVO-Yae0gHEinPBbY1kyhLW9TeY8fEQIDanXWBx4Vk5-oMx8waNIbJGR0wGHBpd7juToOSdluQLoiNlNC4_V_qDzvh3Yk6l2y6sDTl1Zwk2LORNyCloxVBjJybhkECov_KfL2MJfjcLq6Z-9KEVPKLF03Tt-AjYsd0GqYWeZAdqwSd9uN1OMYV3dymoKxiaqOz2LepcAPZC3xL0cuGDApKVs7J1SdKGSZknL2nxP5k-DiUIGyqpm-Is708mDWeD_am0tYDuMwj6vYjLgXfUNTeFMLIDARbH_Bpw-P9-q71Ur-hGZNU6Rqd9DmOmjrfi2mEveBc5aeaH1YDvhg99mZA3VEaLPxNaTOgyJ8D_QeqNVCzBLP4PZTrJQpxFTqAcDYOqswSawVA7j0rWVSHLsAMOVW9jiRgPuPQPui2EgQqETBLApnjJS6b4nd09CKbywfW67vpvVlM5mA7xUwmP_hMpqAAjc66bsZOyyFRk3XmIt5Iu2HXchSLMBZ1At7yIhbNUb4CEHq1WPmf9rgR9Zzu95qJYnZ9X00CI2uwnV6QFtERlYTQyt2nM1SyU8wLm689OHCYqgfNMSBF7klkITgiADBrGQSzamOH5Zc_1slLESwktRhxkX87LcpUmLasTsUt8qvd4BJWakBL7r_kkfQWgFbyv2mxzxwjIiHpMmkx5Ir7oY7Vhxy0E6wMvRaeZAa-aqsTfB3O9QUuQYVMjcymqDIlXNBBogCM4o6zcQnq5SiMVy2YKiCwOZ6OoP43mw3GqeipXGTIc8Ou-afMgZkd8-s6z2hqlXAwOoGfeJu4_J6bixXOy2a3873xiHSvbPeypRGUuby84HV374S6ZVQjsLOFxuIFJ1Q18mvMGZzCoEdS2ZUh_8FW1jxf1SU9vbqORpyYVmAqffFaaTOKKy145joJHHR988ZwC5XHo_CfHzKZJBbJMx50F66ast3G6Cnml1O8HfcSOFlCTNcKK1CsFZtfOpOx1Za_tu_FU0me4HoZMRC-x5G34fCziI08Z9AeHlPh12JomKkIs8kD5SGOUfRXLsYpMN6kgv2Nd-LSMQAEZQ0qJERDNr_TTHEr5DoS1rZYzZQwPf9ceZ2YQvrc63O3HCtBem0WQb_nQuK8fyZTYJzU0JNX6HJmuSWveCV9WwUBhJc0oni_07T-ZNSCFyUjeGE60iK2QUi-FoAGhJ6DULmdii36MAxMbACxnzgAeCcoZTEoI9rp4tOl1uhBcVpHuv8yeZonO6xzxq6uj4OxVRZ_5Pnvn82xYZNt1fg6LN5mpKuidqW9iJFbOK3fSoF7XgLArGJ5ZPUEqv0BbUMPlER0z0NW6NiDYiMYxFk3vbciQUVadQJaMYxEk7nkD-IPhD3hed4QMOJiqCerxd96vRrnyXds_yfzpJ7gEOOwJKT_BJD7-KfyOWjjcOkqlaOcflHjY1gVN4qkdvDEmlK1FmsjrTsBfvDGNsQde_zX4M6J7qPQiqz9WU2YFeS4hNZ3OYTXqrElInD1AJM2mwX6Cz88G3DCP3mRwOniC-vFeYoTaLZROI9m0lfRYkos-HvRsCEj2LDzNJsIATzqjkRODlobgpY5JCgkn7m9DBkxYt25M9zqUxfHZkJphcknsx1JUlVEqPsVpFiF6-cK-jeiUpqCl_l5EEinnGzSZllQZhYEc4XKlXSHS3QziWlumZYR6hhcNoqcmSH_ibL_iqxNJB_2n_VCBvx7DSjm72scldXDeh_CJy7hY_hCoqUx5cPed8_NgPmxYePaTaGksaxIma4EYiKiR6hp8nUNm_IwjEeOk0T7OnSlcAB3vzB7kdsXRBjnNAFHzqq9jDgVT7OpQq0jjvJhIP7Yb1HC51sWyaLCRrdUlTCPrmMf_IB21m3X2Cuu1THN9K7x3tBg1sIcf6tAzuLVxsecyD5_MjJaxr-Oet-OaGv4C9YEc-6H3_PsiCEdzrELV]--></g></svg>