<svg xmlns="http://www.w3.org/2000/svg" xmlns:xlink="http://www.w3.org/1999/xlink" contentStyleType="text/css" height="1700px" preserveAspectRatio="none" style="width:619px;height:1700px;background:#FFFFFF;" version="1.1" viewBox="0 0 619 1700" width="619px" zoomAndPan="magnify"><title>CodiNeo &#8212; Activity Diagram</title><defs/><g><text fill="#000000" font-family="sans-serif" font-size="14" font-weight="bold" lengthAdjust="spacing" textLength="190.251" x="213.103" y="34.5332">CodiNeo &#8212; Activity Diagram</text><ellipse cx="304.7329" cy="58.6094" fill="#222222" rx="10" ry="10" style="stroke:#222222;stroke-width:1.0;"/><rect fill="#FFFFFF" height="35.0938" rx="12.5" ry="12.5" style="stroke:#2F2F2F;stroke-width:0.5;" width="99.3828" x="255.0415" y="88.6094"/><text fill="#000000" font-family="sans-serif" font-size="12" lengthAdjust="spacing" textLength="79.3828" x="265.0415" y="111.0664">Open CodiNeo</text><rect fill="#FFFFFF" height="35.0938" rx="12.5" ry="12.5" style="stroke:#2F2F2F;stroke-width:0.5;" width="129.4121" x="240.0269" y="143.7031"/><text fill="#000000" font-family="sans-serif" font-size="12" lengthAdjust="spacing" textLength="109.4121" x="250.0269" y="166.1602">Authenticate / Log in</text><polygon fill="#F4F6FA" points="65.6624,198.7969,145.7615,198.7969,157.7615,210.7969,145.7615,222.7969,65.6624,222.7969,53.6624,210.7969,65.6624,198.7969" style="stroke:#4F9CF5;stroke-width:0.5;"/><text fill="#000000" font-family="sans-serif" font-size="11" lengthAdjust="spacing" textLength="37.9146" x="109.7119" y="234.2158">Learner</text><text fill="#000000" font-family="sans-serif" font-size="11" lengthAdjust="spacing" textLength="80.0991" x="65.6624" y="215.2979">Role / Pathway?</text><rect fill="#FFFFFF" height="35.0938" rx="12.5" ry="12.5" style="stroke:#2F2F2F;stroke-width:0.5;" width="157.4375" x="26.9932" y="255.7158"/><text fill="#000000" font-family="sans-serif" font-size="12" lengthAdjust="spacing" textLength="137.4375" x="36.9932" y="278.1729">Open Learning Catalogue</text><rect fill="#FFFFFF" height="35.0938" rx="12.5" ry="12.5" style="stroke:#2F2F2F;stroke-width:0.5;" width="189.4238" x="11" y="310.8096"/><text fill="#000000" font-family="sans-serif" font-size="12" lengthAdjust="spacing" textLength="169.4238" x="21" y="333.2666">Select a Design-Pattern Module</text><rect fill="#FFFFFF" height="35.0938" rx="12.5" ry="12.5" style="stroke:#2F2F2F;stroke-width:0.5;" width="138.7402" x="36.3418" y="370.4033"/><text fill="#000000" font-family="sans-serif" font-size="12" lengthAdjust="spacing" textLength="118.7402" x="46.3418" y="392.8604">Study Module Content</text><rect fill="#FFFFFF" height="35.0938" rx="12.5" ry="12.5" style="stroke:#2F2F2F;stroke-width:0.5;" width="151.3906" x="30.0166" y="429.9971"/><text fill="#000000" font-family="sans-serif" font-size="12" lengthAdjust="spacing" textLength="131.3906" x="40.0166" y="452.4541">Take Module Self-Check</text><rect fill="#FFFFFF" height="35.0938" rx="12.5" ry="12.5" style="stroke:#2F2F2F;stroke-width:0.5;" width="189.4063" x="11.0088" y="538.5088"/><text fill="#000000" font-family="sans-serif" font-size="12" lengthAdjust="spacing" textLength="169.4063" x="21.0088" y="560.9658">Cross Over to Developer Studio</text><polygon fill="#F4F6FA" points="45.1716,489.5908,166.2522,489.5908,178.2522,501.5908,166.2522,513.5908,45.1716,513.5908,33.1716,501.5908,45.1716,489.5908" style="stroke:#4F9CF5;stroke-width:0.5;"/><text fill="#000000" font-family="sans-serif" font-size="11" lengthAdjust="spacing" textLength="17.1177" x="109.7119" y="525.0098">yes</text><text fill="#000000" font-family="sans-serif" font-size="11" lengthAdjust="spacing" textLength="121.0806" x="45.1716" y="506.0918">Ready to apply concept?</text><text fill="#000000" font-family="sans-serif" font-size="11" lengthAdjust="spacing" textLength="12.2354" x="178.2522" y="499.1738">no</text><ellipse cx="212.4875" cy="501.5908" fill="none" rx="11" ry="11" style="stroke:#222222;stroke-width:1.0;"/><ellipse cx="212.4875" cy="501.5908" fill="#222222" rx="6" ry="6" style="stroke:#222222;stroke-width:1.0;"/><polygon fill="#F4F6FA" points="334.9539,198.7969,385.093,198.7969,397.093,210.7969,385.093,222.7969,334.9539,222.7969,322.9539,210.7969,334.9539,198.7969" style="stroke:#4F9CF5;stroke-width:0.5;"/><text fill="#000000" font-family="sans-serif" font-size="11" lengthAdjust="spacing" textLength="3.0562" x="364.0234" y="234.2158">&#160;</text><text fill="#000000" font-family="sans-serif" font-size="11" lengthAdjust="spacing" textLength="50.1392" x="334.9539" y="215.2979">Developer</text><text fill="#000000" font-family="sans-serif" font-size="11" lengthAdjust="spacing" textLength="31.1792" x="397.093" y="208.3799">Admin</text><rect fill="#FFFFFF" height="35.0938" rx="12.5" ry="12.5" style="stroke:#2F2F2F;stroke-width:0.5;" width="144.7461" x="287.6504" y="255.7158"/><text fill="#000000" font-family="sans-serif" font-size="12" lengthAdjust="spacing" textLength="124.7461" x="297.6504" y="278.1729">Open Developer Studio</text><rect fill="#FFFFFF" height="35.0938" rx="12.5" ry="12.5" style="stroke:#2F2F2F;stroke-width:0.5;" width="148.7422" x="456.0557" y="315.3096"/><text fill="#000000" font-family="sans-serif" font-size="12" lengthAdjust="spacing" textLength="128.7422" x="466.0557" y="337.7666">Open Admin Dashboard</text><rect fill="#FFFFFF" height="35.0938" rx="12.5" ry="12.5" style="stroke:#2F2F2F;stroke-width:0.5;" width="156.0605" x="452.3965" y="374.9033"/><text fill="#000000" font-family="sans-serif" font-size="12" lengthAdjust="spacing" textLength="136.0605" x="462.3965" y="397.3604">Review Runs / KPI / Logs</text><rect fill="#FFFFFF" height="35.0938" rx="12.5" ry="12.5" style="stroke:#2F2F2F;stroke-width:0.5;" width="142.7363" x="459.0586" y="434.4971"/><text fill="#000000" font-family="sans-serif" font-size="12" lengthAdjust="spacing" textLength="122.7363" x="469.0586" y="456.9541">Export Evaluation Data</text><ellipse cx="530.4268" cy="505.0908" fill="none" rx="11" ry="11" style="stroke:#222222;stroke-width:1.0;"/><ellipse cx="530.4268" cy="505.0908" fill="#222222" rx="6" ry="6" style="stroke:#222222;stroke-width:1.0;"/><rect fill="#FFFFFF" height="50.1875" rx="12.5" ry="12.5" style="stroke:#2F2F2F;stroke-width:0.5;" width="172.0508" x="218.7075" y="613.6025"/><text fill="#000000" font-family="sans-serif" font-size="12" lengthAdjust="spacing" textLength="136.7402" x="228.7075" y="636.0596">Submit C++ Source Code</text><text fill="#000000" font-family="sans-serif" font-size="12" lengthAdjust="spacing" textLength="152.0508" x="228.7075" y="651.1533">(paste / single file / multi-file)</text><rect fill="#FFFFFF" height="35.0938" rx="12.5" ry="12.5" style="stroke:#2F2F2F;stroke-width:0.5;" width="146.75" x="231.3579" y="683.79"/><text fill="#000000" font-family="sans-serif" font-size="12" lengthAdjust="spacing" textLength="126.75" x="241.3579" y="706.2471">Backend validates input</text><polygon fill="#F4F6FA" points="275.9895,738.8838,333.4763,738.8838,345.4763,750.8838,333.4763,762.8838,275.9895,762.8838,263.9895,750.8838,275.9895,738.8838" style="stroke:#4F9CF5;stroke-width:0.5;"/><text fill="#000000" font-family="sans-serif" font-size="11" lengthAdjust="spacing" textLength="57.4868" x="275.9895" y="755.3848">Valid input?</text><text fill="#000000" font-family="sans-serif" font-size="11" lengthAdjust="spacing" textLength="17.1177" x="246.8718" y="748.4668">yes</text><text fill="#000000" font-family="sans-serif" font-size="11" lengthAdjust="spacing" textLength="12.2354" x="345.4763" y="748.4668">no</text><rect fill="#FFFFFF" height="35.0938" rx="12.5" ry="12.5" style="stroke:#2F2F2F;stroke-width:0.5;" width="174.043" x="117.0098" y="772.8838"/><text fill="#000000" font-family="sans-serif" font-size="12" lengthAdjust="spacing" textLength="154.043" x="127.0098" y="795.3408">Forward to C++ microservice</text><rect fill="#FFFFFF" height="35.0938" rx="12.5" ry="12.5" style="stroke:#2F2F2F;stroke-width:0.5;" width="86.0352" x="161.0137" y="827.9775"/><text fill="#000000" font-family="sans-serif" font-size="12" lengthAdjust="spacing" textLength="66.0352" x="171.0137" y="850.4346">Lexical scan</text><rect fill="#FFFFFF" height="35.0938" rx="12.5" ry="12.5" style="stroke:#2F2F2F;stroke-width:0.5;" width="163.3906" x="122.3359" y="883.0713"/><text fill="#000000" font-family="sans-serif" font-size="12" lengthAdjust="spacing" textLength="143.3906" x="132.3359" y="905.5283">Build virtual structural copy</text><rect fill="#FFFFFF" height="35.0938" rx="12.5" ry="12.5" style="stroke:#2F2F2F;stroke-width:0.5;" width="149.4102" x="129.3262" y="938.165"/><text fill="#000000" font-family="sans-serif" font-size="12" lengthAdjust="spacing" textLength="129.4102" x="139.3262" y="960.6221">Dispatch pattern catalog</text><rect fill="#FFFFFF" height="35.0938" rx="12.5" ry="12.5" style="stroke:#2F2F2F;stroke-width:0.5;" width="166.7656" x="120.6484" y="993.2588"/><text fill="#000000" font-family="sans-serif" font-size="12" lengthAdjust="spacing" textLength="146.7656" x="130.6484" y="1015.7158">Bind evidence to code units</text><rect fill="#FFFFFF" height="35.0938" rx="12.5" ry="12.5" style="stroke:#2F2F2F;stroke-width:0.5;" width="148.7422" x="129.6602" y="1048.3525"/><text fill="#000000" font-family="sans-serif" font-size="12" lengthAdjust="spacing" textLength="128.7422" x="139.6602" y="1070.8096">Compute hash and links</text><rect fill="#FFFFFF" height="35.0938" rx="12.5" ry="12.5" style="stroke:#2F2F2F;stroke-width:0.5;" width="184.7656" x="111.6484" y="1103.4463"/><text fill="#000000" font-family="sans-serif" font-size="12" lengthAdjust="spacing" textLength="164.7656" x="121.6484" y="1125.9033">Prepare documentation targets</text><rect fill="#FFFFFF" height="35.0938" rx="12.5" ry="12.5" style="stroke:#2F2F2F;stroke-width:0.5;" width="177.4238" x="115.3193" y="1158.54"/><text fill="#000000" font-family="sans-serif" font-size="12" lengthAdjust="spacing" textLength="157.4238" x="125.3193" y="1180.9971">Generate templated unit tests</text><rect fill="#FFFFFF" height="35.0938" rx="12.5" ry="12.5" style="stroke:#2F2F2F;stroke-width:0.5;" width="170.709" x="118.6768" y="1213.6338"/><text fill="#000000" font-family="sans-serif" font-size="12" lengthAdjust="spacing" textLength="150.709" x="128.6768" y="1236.0908">Emit structured JSON report</text><rect fill="#FFFFFF" height="50.1875" rx="12.5" ry="12.5" style="stroke:#2F2F2F;stroke-width:0.5;" width="182.7793" x="112.6416" y="1268.7275"/><text fill="#000000" font-family="sans-serif" font-size="12" lengthAdjust="spacing" textLength="147.0703" x="122.6416" y="1291.1846">Frontend renders verdicts +</text><text fill="#000000" font-family="sans-serif" font-size="12" lengthAdjust="spacing" textLength="162.7793" x="122.6416" y="1306.2783">bound evidence + docs + tests</text><rect fill="#FFFFFF" height="35.0938" rx="12.5" ry="12.5" style="stroke:#2F2F2F;stroke-width:0.5;" width="186.084" x="110.9893" y="1387.833"/><text fill="#000000" font-family="sans-serif" font-size="12" lengthAdjust="spacing" textLength="166.084" x="120.9893" y="1410.29">Compile &amp; run tests in sandbox</text><rect fill="#FFFFFF" height="35.0938" rx="12.5" ry="12.5" style="stroke:#2F2F2F;stroke-width:0.5;" width="170.7383" x="118.6621" y="1457.9268"/><text fill="#000000" font-family="sans-serif" font-size="12" lengthAdjust="spacing" textLength="150.7383" x="128.6621" y="1480.3838">Show pass / fail per contract</text><polygon fill="#F4F6FA" points="152.0579,1338.915,256.0046,1338.915,268.0046,1350.915,256.0046,1362.915,152.0579,1362.915,140.0579,1350.915,152.0579,1338.915" style="stroke:#4F9CF5;stroke-width:0.5;"/><text fill="#000000" font-family="sans-serif" font-size="11" lengthAdjust="spacing" textLength="17.1177" x="208.0313" y="1374.334">yes</text><text fill="#000000" font-family="sans-serif" font-size="11" lengthAdjust="spacing" textLength="103.9468" x="152.0579" y="1355.416">Run templated tests?</text><text fill="#000000" font-family="sans-serif" font-size="11" lengthAdjust="spacing" textLength="12.2354" x="268.0046" y="1348.498">no</text><polygon fill="#F4F6FA" points="204.0313,1513.0205,216.0313,1525.0205,204.0313,1537.0205,192.0313,1525.0205,204.0313,1513.0205" style="stroke:#4F9CF5;stroke-width:0.5;"/><rect fill="#FFFFFF" height="35.0938" rx="12.5" ry="12.5" style="stroke:#2F2F2F;stroke-width:0.5;" width="114.7168" x="146.6729" y="1557.0205"/><text fill="#000000" font-family="sans-serif" font-size="12" lengthAdjust="spacing" textLength="94.7168" x="156.6729" y="1579.4775">Save analysis run</text><rect fill="#FFFFFF" height="35.0938" rx="12.5" ry="12.5" style="stroke:#2F2F2F;stroke-width:0.5;" width="173.4043" x="117.3291" y="1612.1143"/><text fill="#000000" font-family="sans-serif" font-size="12" lengthAdjust="spacing" textLength="153.4043" x="127.3291" y="1634.5713">Submit self-check / feedback</text><rect fill="#FFFFFF" height="35.0938" rx="12.5" ry="12.5" style="stroke:#2F2F2F;stroke-width:0.5;" width="132.7227" x="339.0732" y="772.8838"/><text fill="#000000" font-family="sans-serif" font-size="12" lengthAdjust="spacing" textLength="112.7227" x="349.0732" y="795.3408">Show validation error</text><ellipse cx="405.4346" cy="838.9775" fill="none" rx="11" ry="11" style="stroke:#222222;stroke-width:1.0;"/><ellipse cx="405.4346" cy="838.9775" fill="#222222" rx="6" ry="6" style="stroke:#222222;stroke-width:1.0;"/><ellipse cx="304.7329" cy="1678.208" fill="none" rx="11" ry="11" style="stroke:#222222;stroke-width:1.0;"/><ellipse cx="304.7329" cy="1678.208" fill="#222222" rx="6" ry="6" style="stroke:#222222;stroke-width:1.0;"/><line style="stroke:#2F2F2F;stroke-width:1.0;" x1="304.7329" x2="304.7329" y1="68.6094" y2="88.6094"/><polygon fill="#2F2F2F" points="300.7329,78.6094,304.7329,88.6094,308.7329,78.6094,304.7329,82.6094" style="stroke:#2F2F2F;stroke-width:1.0;"/><line style="stroke:#2F2F2F;stroke-width:1.0;" x1="304.7329" x2="304.7329" y1="123.7031" y2="143.7031"/><polygon fill="#2F2F2F" points="300.7329,133.7031,304.7329,143.7031,308.7329,133.7031,304.7329,137.7031" style="stroke:#2F2F2F;stroke-width:1.0;"/><line style="stroke:#2F2F2F;stroke-width:1.0;" x1="105.7119" x2="105.7119" y1="290.8096" y2="310.8096"/><polygon fill="#2F2F2F" points="101.7119,300.8096,105.7119,310.8096,109.7119,300.8096,105.7119,304.8096" style="stroke:#2F2F2F;stroke-width:1.0;"/><line style="stroke:#2F2F2F;stroke-width:1.0;" x1="105.7119" x2="105.7119" y1="345.9033" y2="370.4033"/><polygon fill="#2F2F2F" points="101.7119,360.4033,105.7119,370.4033,109.7119,360.4033,105.7119,364.4033" style="stroke:#2F2F2F;stroke-width:1.0;"/><line style="stroke:#2F2F2F;stroke-width:1.0;" x1="105.7119" x2="105.7119" y1="405.4971" y2="429.9971"/><polygon fill="#2F2F2F" points="101.7119,419.9971,105.7119,429.9971,109.7119,419.9971,105.7119,423.9971" style="stroke:#2F2F2F;stroke-width:1.0;"/><line style="stroke:#2F2F2F;stroke-width:1.0;" x1="105.7119" x2="105.7119" y1="513.5908" y2="538.5088"/><polygon fill="#2F2F2F" points="101.7119,528.5088,105.7119,538.5088,109.7119,528.5088,105.7119,532.5088" style="stroke:#2F2F2F;stroke-width:1.0;"/><line style="stroke:#2F2F2F;stroke-width:1.0;" x1="178.2522" x2="201.4875" y1="501.5908" y2="501.5908"/><polygon fill="#2F2F2F" points="191.4875,497.5908,201.4875,501.5908,191.4875,505.5908,195.4875,501.5908" style="stroke:#2F2F2F;stroke-width:1.0;"/><line style="stroke:#2F2F2F;stroke-width:1.0;" x1="105.7119" x2="105.7119" y1="573.6025" y2="593.6025"/><polygon fill="#2F2F2F" points="101.7119,583.6025,105.7119,593.6025,109.7119,583.6025,105.7119,587.6025" style="stroke:#2F2F2F;stroke-width:1.0;"/><line style="stroke:#2F2F2F;stroke-width:1.0;" x1="105.7119" x2="105.7119" y1="465.0908" y2="489.5908"/><polygon fill="#2F2F2F" points="101.7119,479.5908,105.7119,489.5908,109.7119,479.5908,105.7119,483.5908" style="stroke:#2F2F2F;stroke-width:1.0;"/><line style="stroke:#2F2F2F;stroke-width:1.0;" x1="530.4268" x2="530.4268" y1="350.4033" y2="374.9033"/><polygon fill="#2F2F2F" points="526.4268,364.9033,530.4268,374.9033,534.4268,364.9033,530.4268,368.9033" style="stroke:#2F2F2F;stroke-width:1.0;"/><line style="stroke:#2F2F2F;stroke-width:1.0;" x1="530.4268" x2="530.4268" y1="409.9971" y2="434.4971"/><polygon fill="#2F2F2F" points="526.4268,424.4971,530.4268,434.4971,534.4268,424.4971,530.4268,428.4971" style="stroke:#2F2F2F;stroke-width:1.0;"/><line style="stroke:#2F2F2F;stroke-width:1.0;" x1="530.4268" x2="530.4268" y1="469.5908" y2="494.0908"/><polygon fill="#2F2F2F" points="526.4268,484.0908,530.4268,494.0908,534.4268,484.0908,530.4268,488.0908" style="stroke:#2F2F2F;stroke-width:1.0;"/><line style="stroke:#2F2F2F;stroke-width:1.0;" x1="105.7119" x2="105.7119" y1="222.7969" y2="255.7158"/><polygon fill="#2F2F2F" points="101.7119,245.7158,105.7119,255.7158,109.7119,245.7158,105.7119,249.7158" style="stroke:#2F2F2F;stroke-width:1.0;"/><line style="stroke:#2F2F2F;stroke-width:1.0;" x1="360.0234" x2="360.0234" y1="222.7969" y2="255.7158"/><polygon fill="#2F2F2F" points="356.0234,245.7158,360.0234,255.7158,364.0234,245.7158,360.0234,249.7158" style="stroke:#2F2F2F;stroke-width:1.0;"/><line style="stroke:#2F2F2F;stroke-width:1.0;" x1="360.0234" x2="360.0234" y1="290.8096" y2="593.6025"/><polygon fill="#2F2F2F" points="356.0234,583.6025,360.0234,593.6025,364.0234,583.6025,360.0234,587.6025" style="stroke:#2F2F2F;stroke-width:1.0;"/><line style="stroke:#2F2F2F;stroke-width:1.0;" x1="157.7615" x2="322.9539" y1="210.7969" y2="210.7969"/><polygon fill="#2F2F2F" points="312.9539,206.7969,322.9539,210.7969,312.9539,214.7969,316.9539,210.7969" style="stroke:#2F2F2F;stroke-width:1.0;"/><line style="stroke:#2F2F2F;stroke-width:1.0;" x1="304.7329" x2="304.7329" y1="178.7969" y2="183.7969"/><line style="stroke:#2F2F2F;stroke-width:1.0;" x1="304.7329" x2="105.7119" y1="183.7969" y2="183.7969"/><line style="stroke:#2F2F2F;stroke-width:1.0;" x1="105.7119" x2="105.7119" y1="183.7969" y2="198.7969"/><polygon fill="#2F2F2F" points="101.7119,188.7969,105.7119,198.7969,109.7119,188.7969,105.7119,192.7969" style="stroke:#2F2F2F;stroke-width:1.0;"/><line style="stroke:#2F2F2F;stroke-width:1.0;" x1="397.093" x2="530.4268" y1="210.7969" y2="210.7969"/><line style="stroke:#2F2F2F;stroke-width:1.0;" x1="530.4268" x2="530.4268" y1="210.7969" y2="315.3096"/><polygon fill="#2F2F2F" points="526.4268,305.3096,530.4268,315.3096,534.4268,305.3096,530.4268,309.3096" style="stroke:#2F2F2F;stroke-width:1.0;"/><line style="stroke:#2F2F2F;stroke-width:1.0;" x1="105.7119" x2="360.0234" y1="593.6025" y2="593.6025"/><line style="stroke:#2F2F2F;stroke-width:1.0;" x1="304.7329" x2="304.7329" y1="593.6025" y2="613.6025"/><polygon fill="#2F2F2F" points="300.7329,603.6025,304.7329,613.6025,308.7329,603.6025,304.7329,607.6025" style="stroke:#2F2F2F;stroke-width:1.0;"/><line style="stroke:#2F2F2F;stroke-width:1.0;" x1="304.7329" x2="304.7329" y1="663.79" y2="683.79"/><polygon fill="#2F2F2F" points="300.7329,673.79,304.7329,683.79,308.7329,673.79,304.7329,677.79" style="stroke:#2F2F2F;stroke-width:1.0;"/><line style="stroke:#2F2F2F;stroke-width:1.0;" x1="204.0313" x2="204.0313" y1="807.9775" y2="827.9775"/><polygon fill="#2F2F2F" points="200.0313,817.9775,204.0313,827.9775,208.0313,817.9775,204.0313,821.9775" style="stroke:#2F2F2F;stroke-width:1.0;"/><line style="stroke:#2F2F2F;stroke-width:1.0;" x1="204.0313" x2="204.0313" y1="863.0713" y2="883.0713"/><polygon fill="#2F2F2F" points="200.0313,873.0713,204.0313,883.0713,208.0313,873.0713,204.0313,877.0713" style="stroke:#2F2F2F;stroke-width:1.0;"/><line style="stroke:#2F2F2F;stroke-width:1.0;" x1="204.0313" x2="204.0313" y1="918.165" y2="938.165"/><polygon fill="#2F2F2F" points="200.0313,928.165,204.0313,938.165,208.0313,928.165,204.0313,932.165" style="stroke:#2F2F2F;stroke-width:1.0;"/><line style="stroke:#2F2F2F;stroke-width:1.0;" x1="204.0313" x2="204.0313" y1="973.2588" y2="993.2588"/><polygon fill="#2F2F2F" points="200.0313,983.2588,204.0313,993.2588,208.0313,983.2588,204.0313,987.2588" style="stroke:#2F2F2F;stroke-width:1.0;"/><line style="stroke:#2F2F2F;stroke-width:1.0;" x1="204.0313" x2="204.0313" y1="1028.3525" y2="1048.3525"/><polygon fill="#2F2F2F" points="200.0313,1038.3525,204.0313,1048.3525,208.0313,1038.3525,204.0313,1042.3525" style="stroke:#2F2F2F;stroke-width:1.0;"/><line style="stroke:#2F2F2F;stroke-width:1.0;" x1="204.0313" x2="204.0313" y1="1083.4463" y2="1103.4463"/><polygon fill="#2F2F2F" points="200.0313,1093.4463,204.0313,1103.4463,208.0313,1093.4463,204.0313,1097.4463" style="stroke:#2F2F2F;stroke-width:1.0;"/><line style="stroke:#2F2F2F;stroke-width:1.0;" x1="204.0313" x2="204.0313" y1="1138.54" y2="1158.54"/><polygon fill="#2F2F2F" points="200.0313,1148.54,204.0313,1158.54,208.0313,1148.54,204.0313,1152.54" style="stroke:#2F2F2F;stroke-width:1.0;"/><line style="stroke:#2F2F2F;stroke-width:1.0;" x1="204.0313" x2="204.0313" y1="1193.6338" y2="1213.6338"/><polygon fill="#2F2F2F" points="200.0313,1203.6338,204.0313,1213.6338,208.0313,1203.6338,204.0313,1207.6338" style="stroke:#2F2F2F;stroke-width:1.0;"/><line style="stroke:#2F2F2F;stroke-width:1.0;" x1="204.0313" x2="204.0313" y1="1248.7275" y2="1268.7275"/><polygon fill="#2F2F2F" points="200.0313,1258.7275,204.0313,1268.7275,208.0313,1258.7275,204.0313,1262.7275" style="stroke:#2F2F2F;stroke-width:1.0;"/><line style="stroke:#2F2F2F;stroke-width:1.0;" x1="204.0313" x2="204.0313" y1="1422.9268" y2="1457.9268"/><polygon fill="#2F2F2F" points="200.0313,1447.9268,204.0313,1457.9268,208.0313,1447.9268,204.0313,1451.9268" style="stroke:#2F2F2F;stroke-width:1.0;"/><line style="stroke:#2F2F2F;stroke-width:1.0;" x1="204.0313" x2="204.0313" y1="1362.915" y2="1387.833"/><polygon fill="#2F2F2F" points="200.0313,1377.833,204.0313,1387.833,208.0313,1377.833,204.0313,1381.833" style="stroke:#2F2F2F;stroke-width:1.0;"/><line style="stroke:#2F2F2F;stroke-width:1.0;" x1="268.0046" x2="307.0732" y1="1350.915" y2="1350.915"/><polygon fill="#2F2F2F" points="303.0732,1430.4268,307.0732,1440.4268,311.0732,1430.4268,307.0732,1434.4268" style="stroke:#2F2F2F;stroke-width:1.0;"/><line style="stroke:#2F2F2F;stroke-width:1.0;" x1="307.0732" x2="307.0732" y1="1350.915" y2="1525.0205"/><line style="stroke:#2F2F2F;stroke-width:1.0;" x1="307.0732" x2="216.0313" y1="1525.0205" y2="1525.0205"/><polygon fill="#2F2F2F" points="226.0313,1521.0205,216.0313,1525.0205,226.0313,1529.0205,222.0313,1525.0205" style="stroke:#2F2F2F;stroke-width:1.0;"/><line style="stroke:#2F2F2F;stroke-width:1.0;" x1="204.0313" x2="204.0313" y1="1493.0205" y2="1513.0205"/><polygon fill="#2F2F2F" points="200.0313,1503.0205,204.0313,1513.0205,208.0313,1503.0205,204.0313,1507.0205" style="stroke:#2F2F2F;stroke-width:1.0;"/><line style="stroke:#2F2F2F;stroke-width:1.0;" x1="204.0313" x2="204.0313" y1="1318.915" y2="1338.915"/><polygon fill="#2F2F2F" points="200.0313,1328.915,204.0313,1338.915,208.0313,1328.915,204.0313,1332.915" style="stroke:#2F2F2F;stroke-width:1.0;"/><line style="stroke:#2F2F2F;stroke-width:1.0;" x1="204.0313" x2="204.0313" y1="1537.0205" y2="1557.0205"/><polygon fill="#2F2F2F" points="200.0313,1547.0205,204.0313,1557.0205,208.0313,1547.0205,204.0313,1551.0205" style="stroke:#2F2F2F;stroke-width:1.0;"/><line style="stroke:#2F2F2F;stroke-width:1.0;" x1="204.0313" x2="204.0313" y1="1592.1143" y2="1612.1143"/><polygon fill="#2F2F2F" points="200.0313,1602.1143,204.0313,1612.1143,208.0313,1602.1143,204.0313,1606.1143" style="stroke:#2F2F2F;stroke-width:1.0;"/><line style="stroke:#2F2F2F;stroke-width:1.0;" x1="405.4346" x2="405.4346" y1="807.9775" y2="827.9775"/><polygon fill="#2F2F2F" points="401.4346,817.9775,405.4346,827.9775,409.4346,817.9775,405.4346,821.9775" style="stroke:#2F2F2F;stroke-width:1.0;"/><line style="stroke:#2F2F2F;stroke-width:1.0;" x1="263.9895" x2="204.0313" y1="750.8838" y2="750.8838"/><line style="stroke:#2F2F2F;stroke-width:1.0;" x1="204.0313" x2="204.0313" y1="750.8838" y2="772.8838"/><polygon fill="#2F2F2F" points="200.0313,762.8838,204.0313,772.8838,208.0313,762.8838,204.0313,766.8838" style="stroke:#2F2F2F;stroke-width:1.0;"/><line style="stroke:#2F2F2F;stroke-width:1.0;" x1="345.4763" x2="405.4346" y1="750.8838" y2="750.8838"/><line style="stroke:#2F2F2F;stroke-width:1.0;" x1="405.4346" x2="405.4346" y1="750.8838" y2="772.8838"/><polygon fill="#2F2F2F" points="401.4346,762.8838,405.4346,772.8838,409.4346,762.8838,405.4346,766.8838" style="stroke:#2F2F2F;stroke-width:1.0;"/><line style="stroke:#2F2F2F;stroke-width:1.0;" x1="204.0313" x2="204.0313" y1="1647.208" y2="1652.208"/><line style="stroke:#2F2F2F;stroke-width:1.0;" x1="204.0313" x2="304.7329" y1="1652.208" y2="1652.208"/><line style="stroke:#2F2F2F;stroke-width:1.0;" x1="304.7329" x2="304.7329" y1="1652.208" y2="1667.208"/><polygon fill="#2F2F2F" points="300.7329,1657.208,304.7329,1667.208,308.7329,1657.208,304.7329,1661.208" style="stroke:#2F2F2F;stroke-width:1.0;"/><line style="stroke:#2F2F2F;stroke-width:1.0;" x1="304.7329" x2="304.7329" y1="718.8838" y2="738.8838"/><polygon fill="#2F2F2F" points="300.7329,728.8838,304.7329,738.8838,308.7329,728.8838,304.7329,732.8838" style="stroke:#2F2F2F;stroke-width:1.0;"/><!--SRC=[VLHHRnCn37w_Ns5f4dIQ1X9iI6mFQ5nN18njMX7lQUBsekQIK-Aqwni_Wb_8By5EsgtQ9kvUBhRpsVxy-Lv36uoznW1_V_-12qrsPMa3OwiMKVKmQZir44Pu_-PqPqo7JLfQFoW9w9GtwsY9qCDSkOHxljGf4zRMBvvvTda-AxrSn92zQOCB4GucvNafCaI3iKQLv-3THDxzq1Z3UY_YuNaXT8lA7VN1c-Tbd4m-J2x-S-59DGSdau_jvBHfo9B3_rBQD8bKfERiPc3Ajf7dpTb5fWuzMQq8uIrSXGLOVzuqTWwZk-34TgkeMwlDfqEGK1XTeOeUus43KD6AGVXk5IaN5XdFnJT5Xvf0mHYJNVXZnk6HUlWHJ7RR4CfcipLmKPx7ISNnKornPsUS-N7ReLwAgnI6YgzH03KCRWCwU8q3FHIumIJ5CKmRGqfmis8bSVGOL-Z2m0V9QuF08Ii4HZxK2ud284PlxBmHbsHxkBR3V-pyEMB5kp2zzOzXvGXZbRfPKD6K3kzmPN4DTzadvlZxxTVAVYhEo_iXH8BBbN9PaGrocPIuIeMrlkPiccUz9MYFZc0QSjH50jYC1fNAD1CFXGcSspB7FZkont8uvC6B-1W7E8KrFFp4Snyoioyj_n9ZDJnbzMmIufgR448bSMyraunnPNMTwHNUiveS9AryCNpErd4U6ocBcMBMb2D_wZ1iIiJOfa6Hxc3OIaHN8TNhbgjaiWpob2MhvXuXUqkLgpRqN2RoBo5rmBy5SDOlg-is8kyHWWawzoojIYNlmGAtbxyWArcaJzWFZZzCGUPZsaPS2iExejdzRNfp3OpByod-IIooDMppl9m9M6p6QafmnEwPRFTZzKTI2diUyOkSiz_BNrmlQPdxb46-WbZYEOed18bRdeNxyneqxSAQMKoYgRco3aIRl1yKbQQdUgyoabjgXKoTSfjaay3NvQpgIh9-MjPFC17DJCacxWFLj5ib2SN8_yJuLAxo_Gy0]--></g></svg>